<?xml version="1.0" encoding="UTF-8"?>
<svg width="240" height="240" viewBox="0 0 240 240" fill="none" xmlns="http://www.w3.org/2000/svg">
  <path d="M120 240c66.274 0 120-53.726 120-120S186.274 0 120 0 0 53.726 0 120s53.726 120 120 120z" fill="#F5F7FA"/>
  <path d="M136.5 89h-33c-1.933 0-3.5 1.567-3.5 3.5v65c0 1.933 1.567 3.5 3.5 3.5h33c1.933 0 3.5-1.567 3.5-3.5v-65c0-1.933-1.567-3.5-3.5-3.5z" fill="#E4E9F2"/>
  <path d="M123.75 89h-20.25c-1.933 0-3.5 1.567-3.5 3.5v65c0 1.933 1.567 3.5 3.5 3.5h20.25V89z" fill="#D8DFE9"/>
  <path d="M140 82.5h-40c-1.933 0-3.5 1.567-3.5 3.5v70c0 1.933 1.567 3.5 3.5 3.5h40c1.933 0 3.5-1.567 3.5-3.5V86c0-1.933-1.567-3.5-3.5-3.5z" fill="#F5F7FA"/>
  <path d="M120 82.5H100c-1.933 0-3.5 1.567-3.5 3.5v70c0 1.933 1.567 3.5 3.5 3.5h20V82.5z" fill="#E4E9F2"/>
  <path d="M135 95h-30v5h30v-5zm0 15h-30v5h30v-5zm0 15h-30v5h30v-5zm0 15h-30v5h30v-5z" fill="#D8DFE9"/>
</svg>
